<svg width="28" height="28" viewBox="0 0 28 28" fill="none" xmlns="http://www.w3.org/2000/svg">
<path d="M3.47633 18.9839C3.64716 19.4149 3.68519 19.887 3.58554 20.3397L2.34826 24.1619C2.30839 24.3558 2.3187 24.5566 2.3782 24.7453C2.43771 24.934 2.54444 25.1044 2.68827 25.2404C2.8321 25.3763 3.00827 25.4732 3.20006 25.5219C3.39186 25.5707 3.59293 25.5696 3.7842 25.5189L7.7493 24.3594C8.1765 24.2747 8.61892 24.3117 9.02608 24.4663C11.5069 25.6248 14.3172 25.87 16.9611 25.1584C19.605 24.4468 21.9127 22.8243 23.4769 20.5771C25.0412 18.33 25.7614 15.6025 25.5107 12.876C25.26 10.1495 24.0543 7.59919 22.1065 5.67499C20.1586 3.75079 17.5937 2.57638 14.8644 2.35897C12.135 2.14155 9.41659 2.8951 7.18868 4.48667C4.96077 6.07824 3.36658 8.40554 2.68737 11.058C2.00816 13.7104 2.28758 16.5175 3.47633 18.9839Z" stroke="#00A63E" stroke-width="2.32353" stroke-linecap="round" stroke-linejoin="round"/>
</svg>
