<svg width="27" height="27" viewBox="0 0 27 27" fill="none" xmlns="http://www.w3.org/2000/svg">
<path d="M13.168 7.67969V23.0408" stroke="#0084D1" stroke-width="2.19444" stroke-linecap="round" stroke-linejoin="round"/>
<path d="M3.29058 19.7493C2.99958 19.7493 2.7205 19.6337 2.51473 19.428C2.30896 19.2222 2.19336 18.9431 2.19336 18.6521V4.38824C2.19336 4.09724 2.30896 3.81815 2.51473 3.61238C2.7205 3.40662 2.99958 3.29102 3.29058 3.29102H8.77669C9.9407 3.29102 11.057 3.75341 11.8801 4.57649C12.7032 5.39957 13.1656 6.5159 13.1656 7.6799C13.1656 6.5159 13.628 5.39957 14.4511 4.57649C15.2741 3.75341 16.3905 3.29102 17.5545 3.29102H23.0406C23.3316 3.29102 23.6107 3.40662 23.8164 3.61238C24.0222 3.81815 24.1378 4.09724 24.1378 4.38824V18.6521C24.1378 18.9431 24.0222 19.2222 23.8164 19.428C23.6107 19.6337 23.3316 19.7493 23.0406 19.7493H16.4572C15.5842 19.7493 14.747 20.0961 14.1297 20.7135C13.5124 21.3308 13.1656 22.168 13.1656 23.041C13.1656 22.168 12.8188 21.3308 12.2015 20.7135C11.5842 20.0961 10.7469 19.7493 9.87391 19.7493H3.29058Z" stroke="#0084D1" stroke-width="2.19444" stroke-linecap="round" stroke-linejoin="round"/>
</svg>
